<svg xmlns="http://www.w3.org/2000/svg"  viewBox="0 0 1270.902 1160.933"><g transform="translate(-353.63 -102.068)"><path d="M1615.367,641.432v60.41a12.815,12.815,0,0,1-5.8,10.575l-470.127,311.164a12.969,12.969,0,0,1-13.782.26L359.88,564.984a12.933,12.933,0,0,1-6.239-11.7V494.43s48.8.952,51.744.952c1.3,0,5.459,5.376,9.446,11.1L829.572,231.893a12.968,12.968,0,0,1,13.782-.26l714.721,428.26-3.378-9.535Z" transform="translate(0.001 237.304)" fill="#de524e"/><path d="M578.07,241.167c-7.02,1.215-16.9,2.947-22.883.78-9.186-3.467-6.239-15.254-6.239-15.254-.434-.52-.52-1.646-.349-3.121l6.934,4.073c.089,0,.089,0,.174.089l5.722,3.638h.171Z" transform="translate(362.1 225.775)" fill="#ee8072"/><path d="M1609.569,691.359l-470.138,311.21a12.9,12.9,0,0,1-13.759.277L359.9,543.957a12.908,12.908,0,0,1-.466-21.845L829.57,210.948a12.908,12.908,0,0,1,13.759-.326l86.04,51.55,14.411,8.646L1609.1,669.511A12.911,12.911,0,0,1,1609.569,691.359Z" transform="translate(0 198.316)" fill="#ee8072"/><path d="M1542.524,669.142,1102.822,960.2a12.031,12.031,0,0,1-12.827.26L390.268,541.124,373.8,531.244a12,12,0,0,1-.434-20.37l439.7-291.054a11.855,11.855,0,0,1,12.827-.26l26,15.6,690.195,413.526A12.078,12.078,0,0,1,1542.524,669.142Z" transform="translate(26.559 215.053)" fill="#e8e8e8"/><path d="M1528,657.857,1088.3,948.914a12.031,12.031,0,0,1-12.828.26l-46.285-27.739L375.741,529.84a8.221,8.221,0,0,1,1.906-1.561l459.723-304.4,653.7,391.684,36.49,21.842A12.078,12.078,0,0,1,1528,657.857Z" transform="translate(41.086 226.338)" fill="#2e2e2d"/><g transform="translate(471.361 485.13)"><path d="M478.231,314.292,550.5,357.608a3.288,3.288,0,0,1,.123,5.565L470.465,416.18a3.287,3.287,0,0,1-3.5.08l-72.009-43.144-.131-5.888,79.9-52.856A3.287,3.287,0,0,1,478.231,314.292Z" transform="translate(-394.821 -91.65)" fill="#8c8b8b"/><path d="M503.125,293.566l70.8,42.384a4.108,4.108,0,0,1,.16,6.951l-66.858,44.287a4.106,4.106,0,0,1-4.382.1L432.122,344.9a4.109,4.109,0,0,1-.157-6.948l66.781-44.287A4.107,4.107,0,0,1,503.125,293.566Z" transform="translate(-329.216 -130.378)" fill="#8c8b8b"/><path d="M532.249,273.517,600.574,314.5a5.409,5.409,0,0,1,.2,9.152l-62.022,40.975a5.408,5.408,0,0,1-5.759.126l-68.325-40.9a5.41,5.41,0,0,1-.209-9.152l62.022-41.049A5.411,5.411,0,0,1,532.249,273.517Z" transform="translate(-269.923 -167.978)" fill="#8c8b8b"/><path d="M555.716,254.468l72.02,43.2a3.467,3.467,0,0,1,.129,5.865l-58.335,38.58a3.473,3.473,0,0,1-3.693.083l-72.02-43.118a3.467,3.467,0,0,1-.134-5.865l58.335-38.657A3.465,3.465,0,0,1,555.716,254.468Z" transform="translate(-214.004 -202.863)" fill="#8c8b8b"/><path d="M651.806,286.074,597.644,321.9a4.087,4.087,0,0,1-4.35.1l-70.846-42.415a4.083,4.083,0,0,1-.16-6.908l54.162-35.907a4.09,4.09,0,0,1,4.359-.1l70.843,42.49A4.086,4.086,0,0,1,651.806,286.074Z" transform="translate(-161.361 -236.092)" fill="#8c8b8b"/></g><g transform="translate(471.361 482.421)"><path d="M478.231,313.346,550.5,356.659a3.288,3.288,0,0,1,.123,5.565l-80.157,53.01a3.288,3.288,0,0,1-3.5.077L394.953,372.17l-.131-5.888,79.9-52.859A3.287,3.287,0,0,1,478.231,313.346Z" transform="translate(-394.821 -90.702)" fill="#bababa"/><path d="M503.125,292.617,573.922,335a4.108,4.108,0,0,1,.16,6.951L507.223,386.24a4.112,4.112,0,0,1-4.382.1l-70.72-42.387a4.109,4.109,0,0,1-.157-6.948l66.781-44.285A4.107,4.107,0,0,1,503.125,292.617Z" transform="translate(-329.216 -129.429)" fill="#bababa"/><path d="M532.249,272.57l68.325,40.98a5.409,5.409,0,0,1,.2,9.152l-62.022,40.975a5.408,5.408,0,0,1-5.759.129L464.667,322.9a5.41,5.41,0,0,1-.209-9.152L526.481,272.7A5.411,5.411,0,0,1,532.249,272.57Z" transform="translate(-269.923 -167.03)" fill="#bababa"/><path d="M555.716,253.52l72.02,43.2a3.469,3.469,0,0,1,.129,5.868L569.53,341.16a3.467,3.467,0,0,1-3.693.083l-72.02-43.115a3.47,3.47,0,0,1-.134-5.868L552.017,253.6A3.471,3.471,0,0,1,555.716,253.52Z" transform="translate(-214.004 -201.914)" fill="#bababa"/><path d="M651.806,285.128l-54.162,35.827a4.081,4.081,0,0,1-4.35.1L522.448,278.64a4.086,4.086,0,0,1-.16-6.911l54.162-35.9a4.084,4.084,0,0,1,4.359-.1l70.843,42.493A4.086,4.086,0,0,1,651.806,285.128Z" transform="translate(-161.361 -235.144)" fill="#bababa"/></g><g transform="translate(574.83 546.249)"><path d="M514.432,335.676,586.7,378.991a3.288,3.288,0,0,1,.123,5.565l-80.158,53.011a3.287,3.287,0,0,1-3.5.077L431.153,394.5l-.131-5.891,79.9-52.856A3.292,3.292,0,0,1,514.432,335.676Z" transform="translate(-431.022 -113.034)" fill="#8c8b8b"/><path d="M539.326,314.95l70.8,42.384a4.109,4.109,0,0,1,.16,6.951l-66.858,44.287a4.106,4.106,0,0,1-4.382.1l-70.72-42.384a4.109,4.109,0,0,1-.157-6.948l66.778-44.285A4.107,4.107,0,0,1,539.326,314.95Z" transform="translate(-365.417 -151.762)" fill="#8c8b8b"/><path d="M568.45,294.9l68.325,40.981a5.409,5.409,0,0,1,.2,9.152l-62.022,40.975a5.414,5.414,0,0,1-5.759.129l-68.325-40.906a5.41,5.41,0,0,1-.209-9.152l62.022-41.049A5.411,5.411,0,0,1,568.45,294.9Z" transform="translate(-306.124 -189.362)" fill="#8c8b8b"/><path d="M591.917,275.852l72.02,43.2a3.471,3.471,0,0,1,.129,5.868L605.73,363.492a3.467,3.467,0,0,1-3.693.083l-72.02-43.118a3.467,3.467,0,0,1-.134-5.865l58.335-38.657A3.471,3.471,0,0,1,591.917,275.852Z" transform="translate(-250.205 -224.246)" fill="#8c8b8b"/><path d="M688.008,307.46l-54.162,35.827a4.086,4.086,0,0,1-4.353.1l-70.845-42.412a4.086,4.086,0,0,1-.157-6.911l54.162-35.9a4.085,4.085,0,0,1,4.359-.1l70.843,42.492A4.086,4.086,0,0,1,688.008,307.46Z" transform="translate(-197.563 -257.476)" fill="#8c8b8b"/></g><g transform="translate(574.83 543.54)"><path d="M514.432,334.729,586.7,378.042a3.29,3.29,0,0,1,.123,5.568l-80.158,53.008a3.288,3.288,0,0,1-3.5.077l-72.009-43.141-.131-5.888,79.9-52.859A3.293,3.293,0,0,1,514.432,334.729Z" transform="translate(-431.022 -112.085)" fill="#bababa"/><path d="M539.326,314l70.8,42.384a4.108,4.108,0,0,1,.16,6.951l-66.858,44.284a4.112,4.112,0,0,1-4.382.1l-70.72-42.384a4.109,4.109,0,0,1-.157-6.948L534.944,314.1A4.106,4.106,0,0,1,539.326,314Z" transform="translate(-365.417 -150.813)" fill="#bababa"/><path d="M568.45,293.955l68.325,40.978a5.409,5.409,0,0,1,.2,9.152L574.952,385.06a5.408,5.408,0,0,1-5.759.129l-68.325-40.906a5.408,5.408,0,0,1-.209-9.149l62.022-41.052A5.411,5.411,0,0,1,568.45,293.955Z" transform="translate(-306.124 -188.413)" fill="#bababa"/><path d="M591.917,274.9l72.02,43.2a3.471,3.471,0,0,1,.129,5.868L605.73,362.544a3.461,3.461,0,0,1-3.693.083l-72.02-43.116a3.469,3.469,0,0,1-.134-5.868l58.335-38.654A3.465,3.465,0,0,1,591.917,274.9Z" transform="translate(-250.205 -223.298)" fill="#bababa"/><path d="M688.008,306.512,633.846,342.34a4.08,4.08,0,0,1-4.353.1l-70.845-42.412a4.086,4.086,0,0,1-.157-6.911l54.162-35.9a4.085,4.085,0,0,1,4.359-.1L687.854,299.6A4.086,4.086,0,0,1,688.008,306.512Z" transform="translate(-197.563 -256.528)" fill="#bababa"/></g><g transform="translate(678.296 607.24)"><path d="M550.635,357.014,622.9,400.33a3.289,3.289,0,0,1,.123,5.565l-80.158,53.011a3.293,3.293,0,0,1-3.5.077l-72.012-43.141-.132-5.891,79.906-52.856A3.293,3.293,0,0,1,550.635,357.014Z" transform="translate(-467.222 -134.373)" fill="#8c8b8b"/><path d="M575.527,336.289l70.8,42.384a4.11,4.11,0,0,1,.16,6.951l-66.858,44.287a4.106,4.106,0,0,1-4.382.1l-70.72-42.384a4.108,4.108,0,0,1-.157-6.948l66.778-44.285A4.107,4.107,0,0,1,575.527,336.289Z" transform="translate(-401.616 -173.101)" fill="#8c8b8b"/><path d="M604.652,316.241l68.324,40.98a5.409,5.409,0,0,1,.2,9.152l-62.022,40.975a5.414,5.414,0,0,1-5.759.129L537.067,366.57a5.41,5.41,0,0,1-.206-9.152l62.022-41.049A5.411,5.411,0,0,1,604.652,316.241Z" transform="translate(-342.323 -210.701)" fill="#8c8b8b"/><path d="M628.119,297.191l72.017,43.2a3.469,3.469,0,0,1,.131,5.868l-58.335,38.577a3.472,3.472,0,0,1-3.7.083L566.216,341.8a3.467,3.467,0,0,1-.131-5.865l58.335-38.657A3.471,3.471,0,0,1,628.119,297.191Z" transform="translate(-286.404 -245.585)" fill="#8c8b8b"/><path d="M724.207,328.8l-54.16,35.827a4.086,4.086,0,0,1-4.353.1l-70.845-42.412a4.086,4.086,0,0,1-.157-6.911l54.163-35.9a4.084,4.084,0,0,1,4.359-.1l70.843,42.492A4.084,4.084,0,0,1,724.207,328.8Z" transform="translate(-233.761 -278.815)" fill="#8c8b8b"/></g><g transform="translate(678.296 604.535)"><path d="M550.635,356.068,622.9,399.381a3.292,3.292,0,0,1,.123,5.568l-80.158,53.008a3.287,3.287,0,0,1-3.5.077l-72.012-43.141L467.222,409l79.906-52.859A3.292,3.292,0,0,1,550.635,356.068Z" transform="translate(-467.222 -133.429)" fill="#bababa"/><path d="M575.527,335.34l70.8,42.387a4.11,4.11,0,0,1,.16,6.951l-66.858,44.284a4.112,4.112,0,0,1-4.382.1l-70.72-42.384a4.108,4.108,0,0,1-.157-6.948l66.778-44.287A4.112,4.112,0,0,1,575.527,335.34Z" transform="translate(-401.616 -172.156)" fill="#bababa"/><path d="M604.652,315.294l68.324,40.978a5.409,5.409,0,0,1,.2,9.152L611.154,406.4a5.408,5.408,0,0,1-5.759.129l-68.328-40.906a5.407,5.407,0,0,1-.206-9.149l62.022-41.052A5.411,5.411,0,0,1,604.652,315.294Z" transform="translate(-342.323 -209.757)" fill="#bababa"/><path d="M700.265,345.285l-58.338,38.583a3.389,3.389,0,0,1-3.67.092L566.2,340.869a3.52,3.52,0,0,1-.14-5.9L624.4,296.339a3.47,3.47,0,0,1,3.719-.094l34.167,20.5,22.777,13.668,15.06,9.018A3.456,3.456,0,0,1,700.265,345.285Z" transform="translate(-286.404 -244.641)" fill="#bababa"/><path d="M724.234,327.846l-54.2,35.839a4.134,4.134,0,0,1-4.322.094L642.053,349.6l-30.077-18.035L594.87,321.338a4.045,4.045,0,0,1-.186-6.88l54.154-35.933a4.222,4.222,0,0,1,4.37-.091l70.84,42.487A4.086,4.086,0,0,1,724.234,327.846Z" transform="translate(-233.768 -277.868)" fill="#bababa"/></g><g transform="translate(779.21 668.23)"><path d="M585.939,378.353l72.269,43.316a3.288,3.288,0,0,1,.123,5.565l-80.157,53.011a3.294,3.294,0,0,1-3.5.077L502.661,437.18l-.132-5.891,79.9-52.856A3.293,3.293,0,0,1,585.939,378.353Z" transform="translate(-502.529 -155.712)" fill="#8c8b8b"/><path d="M610.833,357.628l70.8,42.384a4.108,4.108,0,0,1,.16,6.951L614.931,451.25a4.106,4.106,0,0,1-4.382.1l-70.72-42.384a4.11,4.11,0,0,1-.157-6.948l66.778-44.285A4.107,4.107,0,0,1,610.833,357.628Z" transform="translate(-436.924 -194.44)" fill="#8c8b8b"/><path d="M639.957,337.58l68.325,40.98a5.409,5.409,0,0,1,.2,9.152l-62.022,40.975a5.414,5.414,0,0,1-5.759.129l-68.325-40.906a5.41,5.41,0,0,1-.209-9.152l62.022-41.049A5.411,5.411,0,0,1,639.957,337.58Z" transform="translate(-377.631 -232.04)" fill="#8c8b8b"/><path d="M663.424,318.53l72.02,43.2a3.471,3.471,0,0,1,.128,5.868L677.238,406.17a3.468,3.468,0,0,1-3.693.083l-72.02-43.118a3.467,3.467,0,0,1-.134-5.865l58.335-38.657A3.471,3.471,0,0,1,663.424,318.53Z" transform="translate(-321.712 -266.924)" fill="#8c8b8b"/><path d="M759.515,350.138l-54.162,35.827a4.081,4.081,0,0,1-4.35.1L630.157,343.65a4.085,4.085,0,0,1-.16-6.911l54.162-35.9a4.085,4.085,0,0,1,4.359-.1l70.843,42.492A4.085,4.085,0,0,1,759.515,350.138Z" transform="translate(-269.07 -300.154)" fill="#8c8b8b"/></g><g transform="translate(779.21 665.521)"><path d="M585.939,377.407l72.269,43.313a3.29,3.29,0,0,1,.123,5.568L578.173,479.3a3.288,3.288,0,0,1-3.5.077l-72.009-43.141-.132-5.888,79.9-52.859A3.293,3.293,0,0,1,585.939,377.407Z" transform="translate(-502.529 -154.763)" fill="#bababa"/><path d="M610.833,356.679l70.8,42.387a4.108,4.108,0,0,1,.16,6.951L614.931,450.3a4.112,4.112,0,0,1-4.382.1l-70.72-42.384a4.11,4.11,0,0,1-.157-6.948l66.778-44.287A4.113,4.113,0,0,1,610.833,356.679Z" transform="translate(-436.924 -193.491)" fill="#bababa"/><path d="M639.957,336.633l68.325,40.978a5.409,5.409,0,0,1,.2,9.152l-62.022,40.975a5.408,5.408,0,0,1-5.759.129L572.375,386.96a5.407,5.407,0,0,1-.209-9.149l62.022-41.052A5.411,5.411,0,0,1,639.957,336.633Z" transform="translate(-377.631 -231.091)" fill="#bababa"/><path d="M663.424,317.581l72.02,43.2a3.471,3.471,0,0,1,.128,5.868l-58.335,38.577a3.462,3.462,0,0,1-3.693.083l-72.02-43.116a3.469,3.469,0,0,1-.134-5.868l58.335-38.654A3.466,3.466,0,0,1,663.424,317.581Z" transform="translate(-321.712 -265.976)" fill="#bababa"/><path d="M759.515,349.19l-54.162,35.827a4.075,4.075,0,0,1-4.35.1L630.157,342.7a4.085,4.085,0,0,1-.16-6.911l54.162-35.9a4.085,4.085,0,0,1,4.359-.1l70.843,42.492A4.086,4.086,0,0,1,759.515,349.19Z" transform="translate(-269.07 -299.206)" fill="#bababa"/></g><g transform="translate(880.12 726.511)"><path d="M621.245,398.746l72.269,43.313a3.29,3.29,0,0,1,.123,5.568l-80.155,53.008a3.292,3.292,0,0,1-3.507.077L537.966,457.57l-.131-5.888,79.9-52.859A3.293,3.293,0,0,1,621.245,398.746Z" transform="translate(-537.835 -176.102)" fill="#8c8b8b"/><path d="M646.141,378.019l70.794,42.387a4.108,4.108,0,0,1,.16,6.951l-66.859,44.284a4.112,4.112,0,0,1-4.382.1l-70.717-42.384a4.108,4.108,0,0,1-.16-6.948l66.781-44.287A4.112,4.112,0,0,1,646.141,378.019Z" transform="translate(-472.23 -214.83)" fill="#8c8b8b"/><path d="M675.263,357.972l68.325,40.978a5.409,5.409,0,0,1,.2,9.152l-62.022,40.975a5.408,5.408,0,0,1-5.759.129L607.682,408.3a5.408,5.408,0,0,1-.209-9.149L669.5,358.1A5.411,5.411,0,0,1,675.263,357.972Z" transform="translate(-412.937 -252.43)" fill="#8c8b8b"/><path d="M698.73,338.92l72.02,43.2a3.469,3.469,0,0,1,.129,5.868l-58.335,38.577a3.461,3.461,0,0,1-3.693.083l-72.02-43.116a3.47,3.47,0,0,1-.134-5.868l58.335-38.654A3.466,3.466,0,0,1,698.73,338.92Z" transform="translate(-357.018 -287.315)" fill="#8c8b8b"/><path d="M794.821,370.529l-54.16,35.827a4.08,4.08,0,0,1-4.353.1l-70.845-42.412a4.086,4.086,0,0,1-.16-6.911l54.162-35.9a4.084,4.084,0,0,1,4.359-.1l70.843,42.492A4.086,4.086,0,0,1,794.821,370.529Z" transform="translate(-304.375 -320.545)" fill="#8c8b8b"/></g><g transform="translate(880.12 723.803)"><path d="M621.245,397.8l72.269,43.313a3.29,3.29,0,0,1,.123,5.568l-80.155,53.008a3.287,3.287,0,0,1-3.507.077l-72.009-43.141-.131-5.888,79.9-52.859A3.293,3.293,0,0,1,621.245,397.8Z" transform="translate(-537.835 -175.156)" fill="#bababa"/><path d="M646.141,377.073l70.794,42.384a4.108,4.108,0,0,1,.16,6.951L650.237,470.7a4.112,4.112,0,0,1-4.382.1l-70.717-42.384a4.108,4.108,0,0,1-.16-6.948l66.781-44.287A4.106,4.106,0,0,1,646.141,377.073Z" transform="translate(-472.23 -213.883)" fill="#bababa"/><path d="M675.263,357.024,743.588,398a5.406,5.406,0,0,1,.2,9.149l-62.022,40.975a5.4,5.4,0,0,1-5.759.129l-68.324-40.9a5.41,5.41,0,0,1-.209-9.152L669.5,357.153A5.405,5.405,0,0,1,675.263,357.024Z" transform="translate(-412.937 -251.484)" fill="#bababa"/><path d="M698.73,337.974l72.02,43.2a3.467,3.467,0,0,1,.129,5.865l-58.335,38.577a3.461,3.461,0,0,1-3.693.083l-72.02-43.116a3.467,3.467,0,0,1-.134-5.865l58.335-38.657A3.466,3.466,0,0,1,698.73,337.974Z" transform="translate(-357.018 -286.368)" fill="#bababa"/><path d="M794.821,369.581l-54.16,35.827a4.086,4.086,0,0,1-4.353.1l-70.845-42.415a4.085,4.085,0,0,1-.16-6.911l54.162-35.9a4.085,4.085,0,0,1,4.359-.1l70.843,42.49A4.086,4.086,0,0,1,794.821,369.581Z" transform="translate(-304.375 -319.597)" fill="#bababa"/></g><g transform="translate(978.713 784.794)"><path d="M655.74,419.137l72.269,43.313a3.29,3.29,0,0,1,.123,5.568l-80.155,53.008a3.286,3.286,0,0,1-3.507.077l-72.009-43.141-.131-5.888,79.9-52.859A3.293,3.293,0,0,1,655.74,419.137Z" transform="translate(-572.33 -196.494)" fill="#8c8b8b"/><path d="M680.636,398.412l70.8,42.384a4.11,4.11,0,0,1,.157,6.951l-66.858,44.287a4.112,4.112,0,0,1-4.381.1l-70.717-42.384a4.108,4.108,0,0,1-.16-6.948l66.781-44.288A4.106,4.106,0,0,1,680.636,398.412Z" transform="translate(-506.725 -235.222)" fill="#8c8b8b"/><path d="M709.758,378.363l68.328,40.981a5.407,5.407,0,0,1,.2,9.149L716.26,469.468a5.4,5.4,0,0,1-5.759.129l-68.325-40.9a5.41,5.41,0,0,1-.209-9.152l62.022-41.049A5.405,5.405,0,0,1,709.758,378.363Z" transform="translate(-447.432 -272.823)" fill="#8c8b8b"/><path d="M733.225,359.313l72.02,43.2a3.467,3.467,0,0,1,.129,5.865l-58.336,38.577a3.461,3.461,0,0,1-3.693.083l-72.02-43.116a3.467,3.467,0,0,1-.134-5.865L729.526,359.4A3.465,3.465,0,0,1,733.225,359.313Z" transform="translate(-391.513 -307.707)" fill="#8c8b8b"/><path d="M829.315,390.92l-54.159,35.827a4.086,4.086,0,0,1-4.353.1l-70.846-42.415a4.087,4.087,0,0,1-.16-6.911l54.162-35.9a4.084,4.084,0,0,1,4.359-.1l70.845,42.49A4.087,4.087,0,0,1,829.315,390.92Z" transform="translate(-338.869 -340.936)" fill="#8c8b8b"/></g><g transform="translate(978.713 782.086)"><path d="M655.74,418.188,728.009,461.5a3.288,3.288,0,0,1,.123,5.565l-80.155,53.008a3.293,3.293,0,0,1-3.507.08l-72.009-43.141-.131-5.891,79.9-52.856A3.292,3.292,0,0,1,655.74,418.188Z" transform="translate(-572.33 -195.547)" fill="#bababa"/><path d="M680.636,397.463l70.8,42.384a4.11,4.11,0,0,1,.157,6.951l-66.858,44.287a4.105,4.105,0,0,1-4.381.1L609.634,448.8a4.108,4.108,0,0,1-.16-6.948l66.781-44.287A4.112,4.112,0,0,1,680.636,397.463Z" transform="translate(-506.725 -234.275)" fill="#bababa"/><path d="M709.758,377.415l68.328,40.98a5.41,5.41,0,0,1,.2,9.152L716.26,468.522a5.414,5.414,0,0,1-5.759.129l-68.325-40.906a5.41,5.41,0,0,1-.209-9.152l62.022-41.049A5.411,5.411,0,0,1,709.758,377.415Z" transform="translate(-447.432 -271.875)" fill="#bababa"/><path d="M733.225,358.365l72.02,43.2a3.469,3.469,0,0,1,.129,5.868L747.038,446a3.467,3.467,0,0,1-3.693.083l-72.02-43.118a3.467,3.467,0,0,1-.134-5.865l58.335-38.657A3.471,3.471,0,0,1,733.225,358.365Z" transform="translate(-391.513 -306.759)" fill="#bababa"/><path d="M829.315,389.973,775.155,425.8a4.086,4.086,0,0,1-4.353.1l-70.846-42.412a4.087,4.087,0,0,1-.16-6.911l54.162-35.9a4.084,4.084,0,0,1,4.359-.1l70.845,42.492A4.087,4.087,0,0,1,829.315,389.973Z" transform="translate(-338.869 -339.989)" fill="#bababa"/></g><path d="M393.223,353.331l143.035,85.722a3.97,3.97,0,0,1,1.932,3.41v11.8a3.973,3.973,0,0,1-6.016,3.41L389.136,372.029a3.98,3.98,0,0,1-1.932-3.413V356.741A3.975,3.975,0,0,1,393.223,353.331Z" transform="translate(62.387 465.826)" fill="#161615"/><path d="M504.8,422.432v12.482a3.718,3.718,0,0,1-5.628,3.19L452.69,410.23a3.719,3.719,0,0,1-1.8-3.187V394.562a3.715,3.715,0,0,1,5.628-3.187l46.48,27.87A3.722,3.722,0,0,1,504.8,422.432Z" transform="translate(180.721 536.587)" fill="#161615"/><path d="M1103.177,403.213,663.476,694.27a12.031,12.031,0,0,1-12.827.26l-46.285-27.739,461.892-305.876,36.49,21.842A12.078,12.078,0,0,1,1103.177,403.213Z" transform="translate(465.906 480.982)" fill="#757474" opacity="0.75"/><path d="M762.725,430.787v10.472a3.422,3.422,0,0,1-1.529,2.85l-54.463,36.082V469.718a3.418,3.418,0,0,1,1.532-2.85Z" transform="translate(656.127 610.816)" fill="#161615"/><ellipse cx="24.885" cy="13.017" rx="24.885" ry="13.017" transform="translate(1319.591 985.52)" fill="#fff"/><g transform="translate(788.383 554.239)"><path d="M566.345,276.9c6.239,13.768-4.79,28.142-24.658,29.865-.537.049-1.066.083-1.595.1-18.21.883-33.089-9.8-34.278-22.582a18.318,18.318,0,0,1,4.333-13.436c4.142-5.076,11.05-8.875,19.47-10.132,10.667-1.6,21.825,1.212,29.37,7.108A24.489,24.489,0,0,1,566.345,276.9Z" transform="translate(-505.738 -260.271)" fill="#e44426"/><g transform="translate(4.409)"><path d="M556.121,267.822l-22.86,3.473L520.9,286.2l-13.616-15.351c4.142-5.076,11.05-8.875,19.47-10.132C537.418,259.116,548.576,261.926,556.121,267.822Z" transform="translate(-507.281 -260.271)" fill="#d8351f"/></g><g transform="translate(0 10.575)"><path d="M548.493,276.441l-8.4,23.548c-18.21.883-33.089-9.8-34.278-22.582a18.318,18.318,0,0,1,4.333-13.436l13.616,15.351Z" transform="translate(-505.738 -263.971)" fill="#cf2719"/></g><g transform="translate(14.708 10.024)"><path d="M537.826,271.968c1.944,5.671-2.844,11.247-10.661,12.09-7.657.826-14.642-3.3-15.68-8.878-.975-5.239,3.7-10,10.5-10.913C528.9,263.336,536,266.646,537.826,271.968Z" transform="translate(-510.006 -263.159)" fill="#f4f4f4"/><path d="M528.355,285.863c-8.509.9-16.243-3.727-17.341-9.9-1.029-5.768,4.144-11,11.6-12.01,7.606-1.038,15.486,2.59,17.546,8.452C542.369,278.7,537.062,284.94,528.355,285.863Zm-5.251-20.03c-6.1.815-10.295,5.108-9.386,9.8.963,4.962,7.226,8.615,14.019,7.871,6.92-.757,11.2-5.7,9.518-10.744C535.67,268,529.313,265,523.1,265.833Z" transform="translate(-510.884 -263.778)" fill="#fff"/></g></g><g transform="translate(514.71 730.562)"><path d="M478.868,339.1c6.168,13.742-4.908,29.048-25.7,32.766-21.122,3.776-40.612-6.439-42.958-21.239-2.1-13.256,10.641-25.3,28.059-28.073C455.465,319.821,473.329,326.755,478.868,339.1Z" transform="translate(-409.987 -321.962)" fill="#e44426"/><g transform="translate(15.68 9.199)"><path d="M424.838,359.437l-2.37-9.789c-3.644-2.087-6.025-5.045-6.757-8.326-1.623-7.271,5.208-14.194,15.077-15.8,9.786-1.592,19.761,2.521,22.431,9.512,2.83,7.409-3.507,15.294-14.368,17.178a26.8,26.8,0,0,1-6.065.349Zm6.379-32.489c-8.749,1.429-14.751,7.58-13.259,14,.692,2.975,2.924,5.639,6.311,7.465l.354.191,1.709,6.8,5.5-4.716.626.051a23.486,23.486,0,0,0,5.868-.269c9.518-1.643,15.137-8.54,12.7-15.065C448.721,329.2,439.9,325.531,431.218,326.948Z" transform="translate(-415.473 -325.181)" fill="#fff"/></g><g transform="translate(22.996 18.378)"><path d="M421.091,328.392s-2.172.071-2.684,1.066a3.38,3.38,0,0,0,1.143,4.413c1.935,1.146,11.156,5.722,20.565,1.649a3.247,3.247,0,0,0,1.115-4.21s-.546-.352-6.094.052c0,0-.131,2.6-.654,2.687a16.821,16.821,0,0,1-10.118-1.369s1.286-1.621.463-2.409A16.857,16.857,0,0,0,421.091,328.392Z" transform="translate(-418.033 -328.392)" fill="#fff"/></g></g><g transform="translate(918.665 969.915)"><path d="M618.065,412.873c14.3,9.9,13.513,26.567-2.7,37.108-16.663,10.827-42.087,10.4-55.814-.786-13.151-10.712-10.09-27,5.974-36.548C581.186,403.333,604.335,403.375,618.065,412.873Z" transform="translate(-551.321 -405.705)" fill="#e44426"/><g transform="translate(12.559 12.733)"><path d="M559.87,419.6a4.844,4.844,0,0,1-3.184-.906,2.124,2.124,0,0,1-.909-2.278,4.173,4.173,0,0,1,2.135-2.427,7.767,7.767,0,0,1,3.718-1.186,4.665,4.665,0,0,1,3.124.855,2.224,2.224,0,0,1,1.015,2.315,4.046,4.046,0,0,1-2.1,2.458A7.507,7.507,0,0,1,559.87,419.6Zm2.169,2.229,6.7-4.119,16.106,12.3-6.782,4.293Z" transform="translate(-555.715 -405.264)" fill="#fff"/><path d="M580.987,410.16a12.685,12.685,0,0,1,7.488,2.578l9.464,6.762-6.517,4.122-8.494-6.177q-3.323-2.418-6.371-.523A3.109,3.109,0,0,0,574.8,419.3c-.043.895.569,1.812,1.846,2.758l7.943,5.888-6.659,4.213-16.155-12.2,6.274-3.856,1.729,1.283a5.269,5.269,0,0,1,1.135-2.709,10.1,10.1,0,0,1,2.778-2.4A13.747,13.747,0,0,1,580.987,410.16Z" transform="translate(-544.451 -410.16)" fill="#fff"/></g></g><g transform="translate(1275.248 743.113)"><path d="M735.433,335.35c9.986,8.689,7.82,20.387-3.947,27.041-11.876,6.717-31.026,6.888-43.973-.406-14.648-8.254-15.643-22.52-.535-30.737C701.913,323.123,724.16,325.538,735.433,335.35Z" transform="translate(-676.08 -326.353)" fill="#e44426"/><g transform="translate(22.602 9.566)"><path d="M704.842,352.52l-12.4-8.372-2.4,1.332-4.05-2.678,2.447-1.355-.695-.469c-2.186-1.475-3.941-3.527-3.744-5.528.12-1.789,1.726-3.3,3.473-4.262a16.612,16.612,0,0,1,3.587-1.489l4.036,3.293a9.353,9.353,0,0,0-2.146.863c-1.941,1.069-1.332,2.529.395,3.756l.886.632,3.721-2.061,3.8,2.792-3.6,2,12.027,8.546Z" transform="translate(-683.988 -329.7)" fill="#fff"/></g></g><g transform="translate(1207.046 909.834)"><path d="M705.772,389.159c17.629,8.017,21.685,23.457,6.494,32.889-14.762,9.163-38.714,6.917-51.779-3.173-11.216-8.66-10.775-20.6-.177-27.853C671.139,383.612,690.744,382.326,705.772,389.159Z" transform="translate(-652.218 -384.684)" fill="#d2d1d1"/><g transform="translate(10.804 12.158)"><path d="M676.574,400.2,656,399.785a2.251,2.251,0,0,1,1.129-1.849l13.493-9a9.214,9.214,0,0,0,1.723,1.252,17.059,17.059,0,0,0,11.07,1.583l.466,3.661C684.231,398.13,680.9,400.291,676.574,400.2Z" transform="translate(-655.998 -388.938)" fill="#e44426"/></g><g transform="translate(11.053 10.769)"><path d="M690.369,388.452l10.775,5.451c2.3,1.166,2.7,3.084.846,4.267l-23.631,15.1a6.559,6.559,0,0,1-6.679-.406l-14.625-10.2a2.994,2.994,0,0,1-.969-1.037l22.008.514c4.387.1,7.751-2.075,7.388-4.8l-.672-5.019a12.335,12.335,0,0,0,3.253-1.452A6.518,6.518,0,0,0,690.369,388.452Z" transform="translate(-656.085 -388.452)" fill="#e44426"/></g><g transform="translate(25.479 3.339)"><path d="M676.054,387.111c4.039,1.966,4.6,5.493,1.106,7.783-3.467,2.275-9.409,2.332-13.15.22-3.587-2.023-3.836-5.328-.66-7.463C666.545,385.5,672.178,385.225,676.054,387.111Z" transform="translate(-661.132 -385.853)" fill="#fff"/></g></g><g transform="translate(904.938 732.845)"><path d="M607.311,327.624c15.843,7.314,21.588,21.493,9.452,32.237-14.325,12.682-43.867,13.228-60.859.877-14.665-10.661-11.221-25.3,3.927-32.926C573.116,321.127,593.157,321.09,607.311,327.624Z" transform="translate(-546.518 -322.761)" fill="#e44426"/><g transform="translate(19.45 9.113)"><path d="M570.689,333.976l4.25-2.735,8.672,4.765a6.86,6.86,0,0,1-1.226,3.484,12.347,12.347,0,0,1-3.13,3.193,16.819,16.819,0,0,1-6.634,2.792,21.4,21.4,0,0,1-7.834.1,18.81,18.81,0,0,1-7.077-2.681,9.6,9.6,0,0,1-3.99-4.336,5.227,5.227,0,0,1,.263-4.539,10.188,10.188,0,0,1,4.061-3.879,18.6,18.6,0,0,1,5.325-2.1,20.288,20.288,0,0,1,5.731-.449l.129,3.633a11.323,11.323,0,0,0-6.448,1.378c-1.552.946-2.31,2.026-2.258,3.238.052,1.238.952,2.4,2.718,3.479a11.449,11.449,0,0,0,7.745,1.492,8.52,8.52,0,0,0,3.433-1.346,5.332,5.332,0,0,0,1.975-2.235Z" transform="translate(-553.323 -322.972)" fill="#fff"/><path d="M573.652,327.664l-2.93,1.912,3.939,2.009-2.738,1.858-3.956-2.069-3.144,2.049-3.416-1.838,3.158-1.989-3.733-1.955,2.787-1.692,3.719,1.9,2.947-1.858Z" transform="translate(-539.368 -325.949)" fill="#fff"/></g></g><g transform="translate(1110.733 849.929)"><path d="M688.487,385.107l-29.1,27.047c-3.441,3.2-10.124,2.993-14.654-.457l-23.6-17.964c-3.561-2.712-3.427-6.751.1-9.037l30.6-19.821c2.55-1.652,7.308-1.506,10.772.331l22.414,11.887C689.219,379.319,690.854,382.909,688.487,385.107Z" transform="translate(-618.52 -363.725)" fill="#e44426"/><g transform="translate(0.794 26.497)"><path d="M646.957,396.56h0L618.8,375.126h0c4.473-3.024,11.61-2.8,16.263.5l10.012,7.111C650.349,386.485,651.367,392.673,646.957,396.56Z" transform="translate(-618.798 -372.996)" fill="#bf1f0f"/></g><g transform="translate(14.239 18.606)"><path d="M627.915,370.81c1.1.732,1.218,1.875.243,2.558a3.593,3.593,0,0,1-3.784-.117c-1.092-.746-1.163-1.889-.18-2.555A3.618,3.618,0,0,1,627.915,370.81Z" transform="translate(-623.502 -370.235)" fill="#161615"/></g><g transform="translate(26.161 9.498)"><path d="M650.212,369.88c6.6,3.707,8.734,9.841,4.264,13.7-4.71,4.076-14.5,3.773-21.279-.655-6.428-4.2-7.271-10.292-2.4-13.648C635.444,366.087,643.929,366.347,650.212,369.88Z" transform="translate(-627.674 -367.048)" fill="#bf1f0f"/></g><g transform="translate(28.892 11.135)"><path d="M646.947,369.959c5.328,3.035,6.957,8,3.3,11.081-3.813,3.221-11.621,2.981-17.069-.526-5.222-3.358-6-8.292-2.083-11.041C634.866,366.826,641.823,367.041,646.947,369.959Z" transform="translate(-628.629 -367.621)" fill="#bababa"/></g></g><g transform="translate(1073.902 624.933)"><path d="M651.965,288.849c16.157,6.931,24.214,21.656,12.719,32.089-12.916,11.721-38.925,8.749-52.3-3.956-10.212-9.709-8.212-21.331,1.763-27.416C623.418,283.916,639.1,283.33,651.965,288.849Z" transform="translate(-605.634 -285.005)" fill="#e44426"/><g transform="translate(11.372 6.311)"><path d="M641.859,300.349l-10.144,7.826c-4.842,3.739-13.522,3.153-18.675-1.015h0c-4.647-3.758-4.456-8.957-.109-11.844l9.2-6.108c3.9-2.592,10.964-2.692,16.294-.094h0C644.277,291.963,646.118,297.062,641.859,300.349Z" transform="translate(-609.613 -287.213)" fill="#fff"/><g transform="translate(9.233 7.326)"><path d="M612.843,291.728l11.949-1.952-1.9,8.545Z" transform="translate(-612.843 -289.776)" fill="#e44426"/></g></g></g><path d="M548.846,342.851s-10.218,13.036,1.32,14.994,17.358-.826,15.617-6.845.363-5.259,6.122-8.9,7.866-1.6,13.976-5.3,4.259-16.214-7.766-14.142-14.794.443-17.389,8.426S550.046,341.119,548.846,342.851Z" transform="translate(354.989 409.462)" fill="#938f8e" opacity="0.75"/><path d="M618.241,423.4c.663-2.087-.586-3.982-1.781-5.659a6.683,6.683,0,0,0-6.391-3.092c-7.117.912-10.99,5.168-15.46.823s-.969-8.163-10.567-7.328-20.67-.515-24.432,5.971,12.436,14.051,22.094,11.9c4.953-1.106,8.569,4.313,12.539,6.282,4.759,2.364,9.955,1.069,14.405-1.349a70.576,70.576,0,0,0,6.468-3.887,8.01,8.01,0,0,0,2.987-3.281C618.156,423.652,618.2,423.526,618.241,423.4Z" transform="translate(381.716 568.531)" fill="#938f8e" opacity="0.75"/><path d="M632.582,314.69c-2.93,6.462-5.488,11.947-9.623,14.039l-22.777-13.668c-.743-1.44-1.395-2.7-1.952-3.578-1.069-1.626,1.115-7.808,4.276-14.828Z" transform="translate(453.999 361.576)" fill="#1a1816" opacity="0.24"/><path d="M598.734,303.1l22.777,13.668a9.142,9.142,0,0,1-6.508.7C605.659,315.46,601.384,308.117,598.734,303.1Z" transform="translate(455.446 373.542)" fill="#938f8e" opacity="0.25"/><path d="M656.442,310.291c-.743,3.115-3.53,3.907-7.065,5.3-.975.372-1.952.743-3.021,1.255l-.046.046a24.109,24.109,0,0,0-10.6,10c-.046.091-.14.231-.186.323a116.545,116.545,0,0,0-5.9,11.807l-30.077-18.035c4.51-10,10.878-21.708,12.6-24.638a9.431,9.431,0,0,0,0-9.575c0-5.716,12.645-2.927,24.126,1.626a90.771,90.771,0,0,1,11.807,5.625,26.031,26.031,0,0,1,5.765,4.09C660.163,304.76,658.022,303.645,656.442,310.291Z" transform="translate(456.957 337.248)" fill="#938f8e" opacity="0.25"/><g transform="translate(1418.852 187.969)"><path d="M930,249.458V563.122a9.505,9.505,0,0,1-3.979,7.78l-.363.18-6.694,5.245s0-1.989.183-3.8a12.04,12.04,0,0,1-3.255-1.266L735.541,462a9.419,9.419,0,0,1-4.522-7.957V141.464a7.445,7.445,0,0,1,.18-1.989l-3.8.36,6.511-5.065a1.816,1.816,0,0,1,.906-.723,9.225,9.225,0,0,1,10.492-.543L925.478,241.5A9.037,9.037,0,0,1,930,249.458Z" transform="translate(-724.32 -132.123)" fill="#757474"/><path d="M740.5,135.308l180.208,108a9.369,9.369,0,0,1,4.55,8.031v313.7a9.364,9.364,0,0,1-14.217,8.009L730.836,463.9a9.362,9.362,0,0,1-4.513-8.009V143.342A9.367,9.367,0,0,1,740.5,135.308Z" transform="translate(-726.323 -128.704)" fill="#d2d1d1"/><path d="M817,201.688V216.6a2.436,2.436,0,0,1-3.687,2.089l-39.771-23.863a2.436,2.436,0,0,1-1.183-2.089V177.825a2.435,2.435,0,0,1,3.687-2.089L815.818,199.6A2.434,2.434,0,0,1,817,201.688Z" transform="translate(-640.78 -51.733)" fill="#f18e7b"/><line x2="39.772" y2="23.863" transform="translate(78.666 100.594)" fill="none" stroke="#161615" stroke-miterlimit="10" stroke-width="0.1"/><line x2="34.957" y2="20.975" transform="translate(78.666 108.314)" fill="none" stroke="#161615" stroke-miterlimit="10" stroke-width="0.1"/><path d="M817,224.661v14.914a2.434,2.434,0,0,1-3.687,2.086L773.542,217.8a2.432,2.432,0,0,1-1.183-2.086V200.8a2.434,2.434,0,0,1,3.687-2.086l39.772,23.863A2.433,2.433,0,0,1,817,224.661Z" transform="translate(-640.78 -9.042)" fill="#f18e7b"/><line x2="39.772" y2="23.863" transform="translate(78.666 166.26)" fill="none" stroke="#161615" stroke-miterlimit="10" stroke-width="0.1"/><line x2="34.957" y2="20.975" transform="translate(78.666 173.979)" fill="none" stroke="#161615" stroke-miterlimit="10" stroke-width="0.1"/><path d="M817,250.269V265.18a2.435,2.435,0,0,1-3.687,2.089l-39.771-23.863a2.433,2.433,0,0,1-1.183-2.089V226.406a2.436,2.436,0,0,1,3.687-2.089l39.772,23.863A2.437,2.437,0,0,1,817,250.269Z" transform="translate(-640.78 38.54)" fill="#f18e7b"/><line x2="39.772" y2="23.863" transform="translate(78.666 239.448)" fill="none" stroke="#161615" stroke-miterlimit="10" stroke-width="0.1"/><line x2="34.957" y2="20.975" transform="translate(78.666 247.167)" fill="none" stroke="#161615" stroke-miterlimit="10" stroke-width="0.1"/><path d="M817,275.184v14.911a2.436,2.436,0,0,1-3.687,2.089l-39.771-23.863a2.436,2.436,0,0,1-1.183-2.089V251.321a2.436,2.436,0,0,1,3.687-2.089l39.772,23.863A2.438,2.438,0,0,1,817,275.184Z" transform="translate(-640.78 84.836)" fill="#f18e7b"/><line x2="39.772" y2="23.863" transform="translate(78.666 310.659)" fill="none" stroke="#161615" stroke-miterlimit="10" stroke-width="0.1"/><line x2="34.957" y2="20.975" transform="translate(78.666 318.378)" fill="none" stroke="#161615" stroke-miterlimit="10" stroke-width="0.1"/><path d="M753.82,155.933c-9.883-1.129-17.44,7.657-19.69,17.778a36.412,36.412,0,0,0,4.736,25.483c2.993-5.482,8.18-9.443,14.468-8.723,6.831.78,12.47,5.611,15.683,12.53q.665-1.016,1.326-2.032C781.988,181.908,770.555,157.662,753.82,155.933Zm8.009,27.133c-3.576,5.782-9.6,4.364-12.745,0a16.078,16.078,0,0,1-2.364-11.2c1.031-4.25,3.979-7.737,8.311-7.423C761.864,165.225,766.548,175.228,761.829,183.065Z" transform="translate(-712.955 -88.061)" fill="#f18e7b"/><path d="M753.82,180.114c-9.883-1.129-17.44,7.657-19.69,17.778a36.42,36.42,0,0,0,4.736,25.486c2.993-5.485,8.18-9.446,14.468-8.726,6.831.78,12.47,5.611,15.683,12.533q.665-1.016,1.326-2.035C781.988,206.089,770.555,181.843,753.82,180.114Zm8.009,27.133c-3.576,5.782-9.6,4.365-12.745,0a16.073,16.073,0,0,1-2.364-11.193c1.031-4.253,3.979-7.74,8.311-7.426C761.864,189.409,766.548,199.409,761.829,207.246Z" transform="translate(-712.955 -43.129)" fill="#f18e7b"/><path d="M753.82,204.239c-9.883-1.129-17.44,7.66-19.69,17.781a36.415,36.415,0,0,0,4.736,25.483c2.993-5.485,8.18-9.443,14.468-8.726,6.831.78,12.47,5.613,15.683,12.533q.665-1.016,1.326-2.032C781.988,230.217,770.555,205.968,753.82,204.239Zm8.009,27.133c-3.576,5.785-9.6,4.367-12.745,0a16.078,16.078,0,0,1-2.364-11.2c1.031-4.25,3.979-7.737,8.311-7.426C761.864,213.534,766.548,223.537,761.829,231.371Z" transform="translate(-712.955 1.7)" fill="#f18e7b"/><path d="M753.82,228.649c-9.883-1.129-17.44,7.657-19.69,17.778a36.42,36.42,0,0,0,4.736,25.486c2.993-5.485,8.18-9.446,14.468-8.726,6.831.78,12.47,5.611,15.683,12.533q.665-1.016,1.326-2.035C781.988,254.624,770.555,230.378,753.82,228.649Zm8.009,27.133c-3.576,5.782-9.6,4.364-12.745,0a16.078,16.078,0,0,1-2.364-11.2c1.031-4.25,3.979-7.737,8.311-7.423C761.864,237.944,766.548,247.944,761.829,255.781Z" transform="translate(-712.955 47.058)" fill="#f18e7b"/></g><g transform="translate(1340.932 498.037)"><path d="M796.653,296.83V447.124a4.553,4.553,0,0,1-1.906,3.727l-.174.086-3.207,2.512s0-.952.089-1.818a5.884,5.884,0,0,1-1.561-.609l-86.417-52.35a4.516,4.516,0,0,1-2.166-3.813V245.082a3.588,3.588,0,0,1,.086-.952l-1.818.172,3.118-2.427a.877.877,0,0,1,.434-.346,4.42,4.42,0,0,1,5.028-.26l86.328,51.744A4.333,4.333,0,0,1,796.653,296.83Z" transform="translate(-698.1 -240.607)" fill="#757474"/><path d="M705.855,242.135,792.2,293.88a4.491,4.491,0,0,1,2.181,3.85V448.041a4.489,4.489,0,0,1-6.814,3.839l-86.345-52.3a4.486,4.486,0,0,1-2.164-3.839V245.982A4.486,4.486,0,0,1,705.855,242.135Z" transform="translate(-699.061 -238.969)" fill="#d2d1d1"/><g transform="translate(6.591 16.064)"><path d="M783.9,294.62v17.941l-1.126,1.126v-1.821l-81.041-48.449V250.067a3.924,3.924,0,0,1,5.893-3.293l74.367,44.55A3.925,3.925,0,0,1,783.9,294.62Z" transform="translate(-700.69 -246.228)" fill="#d9584d"/><path d="M783.448,295.022v17.941L701.367,263.73V250.471a3.9,3.9,0,0,1,5.894-3.3l74.367,44.55A3.935,3.935,0,0,1,783.448,295.022Z" transform="translate(-701.366 -245.503)" fill="#f18e7b"/><line x2="74.527" y2="44.7" transform="translate(0 47.279)" fill="none" stroke="#161615" stroke-miterlimit="10" stroke-width="0.1"/><line x2="74.527" y2="44.7" transform="translate(0 59.575)" fill="none" stroke="#161615" stroke-miterlimit="10" stroke-width="0.1"/><line x2="48.072" y2="28.833" transform="translate(0 98.619)" fill="none" stroke="#161615" stroke-miterlimit="10" stroke-width="0.1"/><line x2="48.072" y2="28.833" transform="translate(0 137.459)" fill="none" stroke="#161615" stroke-miterlimit="10" stroke-width="0.1"/><line x2="74.527" y2="44.7" transform="translate(0 37.225)" fill="none" stroke="#161615" stroke-miterlimit="10" stroke-width="0.1"/><path d="M864.374,367.743v17.375a2.076,2.076,0,0,1-3.144,1.781l-158.857-95.28a2.079,2.079,0,0,1-1.006-1.781V272.463a2.073,2.073,0,0,1,3.141-1.778l158.857,95.28A2.071,2.071,0,0,1,864.374,367.743Z" transform="translate(-701.366 -201.339)" fill="#f18e7b"/><path d="M749.471,313.1v22.189l-48.1-28.863V284.235Z" transform="translate(-701.367 -175.604)" fill="#f18e7b"/></g><path d="M729.953,296.966c-4.767,0-7.885,4.6-8.406,9.535a17.437,17.437,0,0,0,3.639,11.876c1.126-2.775,3.381-4.942,6.414-4.942,3.3,0,6.242,1.995,8.148,5.113.174-.346.346-.692.52-1.04C744.776,307.8,738.013,296.881,729.953,296.966Zm5.288,12.482c-1.387,2.947-4.333,2.6-6.068.694a7.709,7.709,0,0,1-1.732-5.2c.26-2.081,1.472-3.9,3.552-3.987C734.286,300.953,737.062,305.461,735.241,309.448Z" transform="translate(-657.376 -135.883)" fill="#f18e7b"/></g><g transform="translate(1074.359 102.068)"><path d="M605.794,211.79V505.1a8.879,8.879,0,0,0,3.721,7.271l.34.172,6.259,4.9s0-1.861-.172-3.553a11.414,11.414,0,0,0,3.047-1.183L787.637,410.544a8.814,8.814,0,0,0,4.227-7.443V110.8a6.977,6.977,0,0,0-.169-1.864l3.553.34-6.091-4.736a1.668,1.668,0,0,0-.846-.677,8.62,8.62,0,0,0-9.809-.506L610.024,204.347A8.445,8.445,0,0,0,605.794,211.79Z" transform="translate(-605.794 -102.068)" fill="#757474"/><path d="M780.771,105.048,612.256,206.036A8.762,8.762,0,0,0,608,213.547V506.9a8.76,8.76,0,0,0,13.3,7.491L789.808,412.321a8.759,8.759,0,0,0,4.222-7.491V112.559A8.757,8.757,0,0,0,780.771,105.048Z" transform="translate(-601.695 -98.872)" fill="#d2d1d1"/><g transform="translate(34.028 52.125)"><line x1="145.446" y2="87.236" transform="translate(0 71.494)" fill="none" stroke="#161615" stroke-miterlimit="10" stroke-width="0.1"/><line x1="145.446" y2="87.236" transform="translate(0 95.491)" fill="none" stroke="#161615" stroke-miterlimit="10" stroke-width="0.1"/><line x1="93.818" y2="56.27" transform="translate(51.629 171.689)" fill="none" stroke="#161615" stroke-miterlimit="10" stroke-width="0.1"/><line x1="93.818" y2="56.27" transform="translate(51.629 247.49)" fill="none" stroke="#161615" stroke-miterlimit="10" stroke-width="0.1"/><line x1="145.446" y2="87.236" transform="translate(0 51.873)" fill="none" stroke="#161615" stroke-miterlimit="10" stroke-width="0.1"/><path d="M632.754,176.634v43.3l93.881-56.329v-43.3Z" transform="translate(-589.726 -120.306)" fill="#f18e7b"/></g></g><g transform="translate(1074.456 206.467)"><path d="M796.287,248.315V541.629a8.881,8.881,0,0,1-3.721,7.274l-.337.169-6.26,4.9s0-1.858.169-3.55a11.356,11.356,0,0,1-3.044-1.183L614.447,447.072a8.81,8.81,0,0,1-4.23-7.443V147.33a6.957,6.957,0,0,1,.169-1.861l-3.55.34,6.088-4.736a1.681,1.681,0,0,1,.846-.677,8.624,8.624,0,0,1,9.812-.509L792.06,240.872A8.449,8.449,0,0,1,796.287,248.315Z" transform="translate(-603.955 -138.595)" fill="#757474"/><path d="M619.087,141.575,787.6,242.563a8.752,8.752,0,0,1,4.256,7.511V543.423a8.756,8.756,0,0,1-13.293,7.488L610.047,448.846a8.758,8.758,0,0,1-4.219-7.488V149.086A8.756,8.756,0,0,1,619.087,141.575Z" transform="translate(-605.828 -135.398)" fill="#efafab"/><path d="M756.576,242.005V350.853a2.652,2.652,0,0,1-4.016,2.275L614.93,270.547a2.644,2.644,0,0,1-1.289-2.272V158.609a2.65,2.65,0,0,1,4.024-2.267L755.3,239.736A2.649,2.649,0,0,1,756.576,242.005Z" transform="translate(-591.31 -106.339)" fill="#a3a3a3"/><path d="M663.243,234.123v30.651a1.65,1.65,0,0,1-2.5,1.412l-44.4-26.927a1.642,1.642,0,0,1-.795-1.409V207.2a1.649,1.649,0,0,1,2.5-1.412l44.4,26.927A1.655,1.655,0,0,1,663.243,234.123Z" transform="translate(-587.781 -14.189)" fill="#a3a3a3"/><line x2="47.702" y2="28.926" transform="translate(90.488 232.708)" fill="none" stroke="#161615" stroke-miterlimit="10" stroke-width="0.1"/><line x2="67.165" y2="40.728" transform="translate(90.488 239.965)" fill="none" stroke="#161615" stroke-miterlimit="10" stroke-width="0.1"/><line x2="74.778" y2="45.344" transform="translate(90.488 248.297)" fill="none" stroke="#161615" stroke-miterlimit="10" stroke-width="0.1"/><line x2="47.702" y2="28.926" transform="translate(90.488 272.447)" fill="none" stroke="#161615" stroke-miterlimit="10" stroke-width="0.1"/><line x2="67.165" y2="40.728" transform="translate(90.488 279.705)" fill="none" stroke="#161615" stroke-miterlimit="10" stroke-width="0.1"/><line x2="74.778" y2="45.344" transform="translate(90.488 288.037)" fill="none" stroke="#161615" stroke-miterlimit="10" stroke-width="0.1"/><line x2="47.702" y2="28.926" transform="translate(90.488 318.258)" fill="none" stroke="#161615" stroke-miterlimit="10" stroke-width="0.1"/><line x2="67.165" y2="40.728" transform="translate(90.488 325.516)" fill="none" stroke="#161615" stroke-miterlimit="10" stroke-width="0.1"/><line x2="67.165" y2="40.728" transform="translate(90.488 310.709)" fill="none" stroke="#161615" stroke-miterlimit="10" stroke-width="0.1"/><line x2="74.778" y2="45.344" transform="translate(90.488 333.848)" fill="none" stroke="#161615" stroke-miterlimit="10" stroke-width="0.1"/><path d="M756.582,273v2.369L613.646,188.766V186.4Z" transform="translate(-591.301 -49.769)" fill="#161615"/><path d="M632.155,196.256c.866-9.6,6.96-18.581,16.406-18.647,15.68-.109,28.862,21.136,20.087,40.123-6.419,13.888-20.2,12.05-28.422,3.061C634.436,214.46,631.4,204.579,632.155,196.256Z" transform="translate(-557.119 -66.1)" fill="#f18e7b"/><path d="M649.88,195.736l-12.656,11.1.957-24.5Z" transform="translate(-547.49 -57.31)" fill="#a3a3a3"/><path d="M662.967,243.253v.786L615.54,215.3v-.786Z" transform="translate(-587.781 2.48)" fill="#161615"/><path d="M622.293,216.9c.209-2.321,1.68-4.49,3.964-4.5,3.79-.026,6.974,5.108,4.853,9.695-1.549,3.356-4.879,2.912-6.865.737A8.155,8.155,0,0,1,622.293,216.9Z" transform="translate(-575.284 -1.465)" fill="#de5041"/><path d="M626.576,216.773l-3.058,2.683.231-5.92Z" transform="translate(-572.957 0.658)" fill="#a3a3a3"/><path d="M663.243,248.591v30.651a1.649,1.649,0,0,1-2.5,1.409l-44.4-26.927a1.642,1.642,0,0,1-.795-1.409V221.664a1.648,1.648,0,0,1,2.5-1.409l44.4,26.927A1.648,1.648,0,0,1,663.243,248.591Z" transform="translate(-587.781 12.695)" fill="#a3a3a3"/><path d="M662.967,257.721v.786L615.54,229.77v-.786Z" transform="translate(-587.781 29.363)" fill="#161615"/><path d="M622.293,231.365c.209-2.318,1.68-4.487,3.964-4.5,3.79-.026,6.974,5.108,4.853,9.695-1.549,3.355-4.879,2.912-6.865.74A8.165,8.165,0,0,1,622.293,231.365Z" transform="translate(-575.284 25.417)" fill="#de5041"/><path d="M626.576,231.24l-3.058,2.683.231-5.92Z" transform="translate(-572.957 27.541)" fill="#a3a3a3"/><path d="M663.243,263.416v30.651a1.648,1.648,0,0,1-2.5,1.409l-44.4-26.924a1.649,1.649,0,0,1-.795-1.409V236.489a1.649,1.649,0,0,1,2.5-1.409l44.4,26.927A1.655,1.655,0,0,1,663.243,263.416Z" transform="translate(-587.781 40.243)" fill="#a3a3a3"/><path d="M662.967,272.546v.786L615.54,244.595v-.786Z" transform="translate(-587.781 56.911)" fill="#161615"/><path d="M622.293,246.192c.209-2.321,1.68-4.49,3.964-4.507,3.79-.026,6.974,5.108,4.853,9.7-1.549,3.355-4.879,2.91-6.865.737A8.159,8.159,0,0,1,622.293,246.192Z" transform="translate(-575.284 52.964)" fill="#de5041"/><path d="M626.576,246.066l-3.058,2.683.231-5.92Z" transform="translate(-572.957 55.089)" fill="#a3a3a3"/></g><g transform="translate(1075.534 403.775)"><line x1="28.121" y2="220.23" transform="translate(33.723 23.551)" fill="none" stroke="#161615" stroke-miterlimit="10" stroke-width="0.25"/><line x1="28.121" y2="220.23" fill="none" stroke="#161615" stroke-miterlimit="10" stroke-width="0.25"/><line x1="34.15" y1="20.455" transform="translate(24.586 27.694)" fill="none" stroke="#161615" stroke-miterlimit="10" stroke-width="0.25"/><line x1="34.15" y1="20.455" transform="translate(22.073 47.282)" fill="none" stroke="#161615" stroke-miterlimit="10" stroke-width="0.25"/><line x1="34.15" y1="20.455" transform="translate(19.386 68.258)" fill="none" stroke="#161615" stroke-miterlimit="10" stroke-width="0.25"/><line x1="34.063" y1="20.455" transform="translate(16.872 88.28)" fill="none" stroke="#161615" stroke-miterlimit="10" stroke-width="0.25"/><line x1="34.15" y1="20.455" transform="translate(14.272 108.128)" fill="none" stroke="#161615" stroke-miterlimit="10" stroke-width="0.25"/><line x1="34.15" y1="20.455" transform="translate(11.672 128.41)" fill="none" stroke="#161615" stroke-miterlimit="10" stroke-width="0.25"/><line x1="34.15" y1="20.369" transform="translate(8.985 149.646)" fill="none" stroke="#161615" stroke-miterlimit="10" stroke-width="0.25"/><line x1="34.15" y1="20.455" transform="translate(5.951 173.134)" fill="none" stroke="#161615" stroke-miterlimit="10" stroke-width="0.25"/><line x1="34.15" y1="20.455" transform="translate(2.918 196.97)" fill="none" stroke="#161615" stroke-miterlimit="10" stroke-width="0.25"/></g><path d="M680.143,351.4s-5.822-3.31-3.781-8.529,12.361-7.314,18.5-6.662S717.8,334.6,717.277,337.8s-.915,10.867-6.145,11.656-19.367,3.115-24.014,3.31S680.143,351.4,680.143,351.4Z" transform="translate(598.886 434.751)" fill="#938f8e" opacity="0.75"/><g transform="translate(1076.079 420.714)"><path d="M624.407,216s3.31,10.95-1.189,14.742-5.216,2.73-5.216,2.73.98,4.1-1.006,4.1-3.973,3.044-5.162-5.428-3.973-8.735-2.384-11.647S624.407,216,624.407,216Z" transform="translate(-601.61 -209.001)" fill="#c18b52"/><path d="M627.976,215.395s.131.795-1.323,0-1.721-1.852-2.384-.795-2.778-.494-3.31-.446-1.586-1.375-2.647,0-1.057,1.815-2.249,1.595-2.384-2.052-4.1-1.072-1.192,1.643-1.721,2.835-.263-.266-1.192,1.06a4.812,4.812,0,0,0-.926,2.512s.266.663.795.663.663,2.249,0,2.384,1.323,3.044,1.323,3.044a1.389,1.389,0,0,1,.4,1.455,2.761,2.761,0,0,0,.266,2.515c.529.663,0,0,.4,2.118s.926,2.118,1.586,1.986a13.648,13.648,0,0,0,2.65-1.589,8.547,8.547,0,0,0,2.515-2.778c1.057-1.855-.923-2.912,0-3.444s.263-1.586.926-.529a5.73,5.73,0,0,1,.926,2.647.7.7,0,0,0,.795.795c.529,0,1.057.929.926-1.323s-.4-1.984.4-3.044-.131-1.263,1.852-1.558,2.389-.031,4.107-.826,3.307-2.381,3.041-3.97a10.388,10.388,0,0,0-.66-2.912A11.237,11.237,0,0,0,627.976,215.395Z" transform="translate(-603.192 -213.554)" fill="#341e13"/><path d="M617.143,236.974s4.97-1.872,6.691-1.741c0,0,5.691-8.735,9.132-14.428a6.385,6.385,0,0,1-.66-3.7c.263-2.118.795,1.586,1.986,1.721s5.293.926,6.088-.929,1.721-1,.4,1.752-3.441,1.295-4.765,2.484-8.209,15.62-8.737,16.414-4.216,2.509-7.8,1.984S617.143,236.974,617.143,236.974Z" transform="translate(-586.82 -208.175)" fill="#c18b52"/><path d="M616.7,228.959l10.99-1.7s.663-2.252,3.97,0,.929,1.586,0,3.573-15.789,1.986-16.695,2.118S615.559,229.136,616.7,228.959Z" transform="translate(-590.993 -189.944)" fill="#c18b52"/><path d="M608.659,263.3s-2.529,6.005.823,7.768,12.707-3.881,15.531-6.354.952-4.942-8.3-4.059S608.659,263.3,608.659,263.3Z" transform="translate(-603.891 -126.363)" fill="#161615"/><path d="M616.694,259.1s-2.533,6,.82,7.769,12.707-3.884,15.531-6.354.955-4.942-8.294-4.059S616.694,259.1,616.694,259.1Z" transform="translate(-588.964 -134.182)" fill="#161615"/><g transform="translate(3.578 70.245)"><path d="M607.648,238.131V304.3s5.542,3.353,9.246-2.118l2.824-62.831Z" transform="translate(-607.648 -238.131)" fill="#2b2826"/><path d="M607.648,238.131a29.672,29.672,0,0,0,17.012,21.516s3,1.944,3.53,9.178,3.884,25.063,3.884,25.063,5.294,0,6.705-2.824c0,0,1.332-26.3-1.541-32.3s-8.652-15.709-8.652-15.709Z" transform="translate(-607.648 -238.131)" fill="#2e2e2d"/></g><path d="M611.323,222a7.1,7.1,0,0,1,7.148,1.06c3.441,2.778,11.253,5.565,13.1,4.9s5.293-2.247,6.751,0,2.647,3.97-2.647,6.351-4.1,7.017-3.576,13.371.926,25.944-1.192,26.341-17.338,4.5-21.839-6.751S606.03,222,611.323,222Z" transform="translate(-606.396 -198.845)" fill="#e75a52"/></g><g transform="translate(949.626 842.066)"><g transform="translate(0 132.842)"><path d="M577.664,407.452s-12.179,1.721-14.474,5.393-.917,7.288,5.508,6.78,16.314-1.326,17.129-3.876.46-7.34.46-7.34l-8.363-.958Z" transform="translate(-562.153 -407.452)" fill="#161615"/><path d="M583.1,411.357s-13.488,4.224-12.333,12.247,22.025-.137,23.657-2.312.409-11.353.409-11.353Z" transform="translate(-546.276 -402.831)" fill="#161615"/></g><g transform="translate(15.192 75.544)"><path d="M574.321,391.512s-4.8,20.27-5.165,30.022-3.61,22.571,0,26,8.489,1.263,8.489,1.263,1.443-24.738,4.153-31.6,8.686-19.647,8.686-19.647l-3.458-10.149Z" transform="translate(-567.469 -387.405)" fill="#d23c3e"/><path d="M589.136,389.449,587.5,454.392s-9.569,3.613-11.015-4.333-2.175-60.61-2.175-60.61Z" transform="translate(-554.754 -383.607)" fill="#de524e"/></g><path d="M599.358,372.1s12.553,9.278,12.859,13.868,2.652,27.939-2.955,29.571a5.46,5.46,0,0,1-3.1.818s-.366,8.872-1.795,11.013-14.58,9.483-27.53-1.735c0,0,1.323-22.128,0-21.922s-10.2.406-10.707-5.917,13.662-28.753,18.455-28.753S599.358,372.1,599.358,372.1Z" transform="translate(-554.791 -345.983)" fill="#161615"/><path d="M571.905,364.674a32.632,32.632,0,0,0,0,7.766c.491,4.69-.937,11.93,2.429,12.542a48.79,48.79,0,0,0,5,.715s-2.447,5.711,1.02,6.731,8.36-2.549,8.566-4.793,0-10.3,0-10.3.712-7.994.712-8.637-5.4-3.4-9.483-5.23S571.905,364.674,571.905,364.674Z" transform="translate(-544.439 -357.437)" fill="#f5d299"/><path d="M574.962,362.414s-4.079.509-3.57,3.264,1.938,4.079,7.749,4.793,3.367,11.113,4.59,8.769,4.893-4.385,4.893-1.223-.509,3.364.612,5.2,1.838-5.811,3.979-10.4S593.112,357.01,574.962,362.414Z" transform="translate(-545.066 -360.974)" fill="#161615"/><path d="M583.85,383.993l-5,4.893s-4.284-6.525-8.26-7.443-.714-3.367,2.55-3.979,5.3.409,7.546,3.367S583.85,383.993,583.85,383.993Z" transform="translate(-549.875 -330.648)" fill="#f5d299"/><path d="M573.315,379.468s8.8-1.615,10.535,0,5.508,6.205,4.079,7.631-12.542-5.811-12.542-5.811S574,382.237,573.315,379.468Z" transform="translate(-541.413 -327.944)" fill="#f5d299"/></g><g transform="translate(706.289 790.223)"><path d="M552.528,384.712v177.25a5.068,5.068,0,0,1-2.861,4.593l-.78.346-5.028,2.429-.955-.52,1.129-2.515.52-.086-61.019-36.576a4.925,4.925,0,0,1-2.515-4.336V347.613l-2.947-1.558,5.2-2.427.692-.263a5.115,5.115,0,0,1,4.856.174l61.191,36.75A5.168,5.168,0,0,1,552.528,384.712Z" transform="translate(-475.054 -342.836)" fill="#f7c5c4"/><path d="M484.785,344.543l61.262,36.713a5.136,5.136,0,0,1,2.5,4.4V562.97a5.131,5.131,0,0,1-7.768,4.4l-61.265-36.716a5.129,5.129,0,0,1-2.492-4.4V348.944A5.131,5.131,0,0,1,484.785,344.543Z" transform="translate(-477.016 -341.035)" fill="#f29b8b"/></g><g transform="translate(797.493 702.484)"><path d="M518.017,312.8l145.407,87.14a4.623,4.623,0,0,1,2.249,3.967V582.4a4.624,4.624,0,0,1-7,3.964l-145.41-87.14a4.627,4.627,0,0,1-2.247-3.967V316.768A4.623,4.623,0,0,1,518.017,312.8Z" transform="translate(-505.046 -312.138)" fill="#f7caca"/><path d="M515.926,314.3l145.41,87.14a4.628,4.628,0,0,1,2.247,3.967V583.9a4.626,4.626,0,0,1-7,3.967L511.173,500.721a4.621,4.621,0,0,1-2.247-3.967V318.263A4.623,4.623,0,0,1,515.926,314.3Z" transform="translate(-508.926 -309.363)" fill="#f29b8b"/></g><g transform="translate(903.123 626.587)"><path d="M554.707,324.228s-2.564,5.842,0,7.98a121.581,121.581,0,0,1,13.685,0c7.554.429,7.7-3.278-10.264-9.406Z" transform="translate(-531.604 -216.425)" fill="#161615"/><path d="M548.519,330.1a20.393,20.393,0,0,1-.749,4.6c-.535,1.178-.109,4.064,1.924,6.737s6.862,1.818,7.763-.534-3.7-6.2-3.167-10.8S548.519,330.1,548.519,330.1Z" transform="translate(-542.769 -206.656)" fill="#161615"/><path d="M565,306.5v47.511s-3.221,3.636-6.705,2.567l-7.268-46.4Z" transform="translate(-536.334 -246.712)" fill="#221f1d"/><path d="M579.978,319.871s-14.985-1.849-18.472-2.978c-3.49-1.163-9.066-8.552-9.615-13.991a4.395,4.395,0,0,1,.652-3.353v-.034s2.052-4,5.542,1.129,3.693,12.384,21.313,12.522C579.4,313.166,577.48,317.441,579.978,319.871Z" transform="translate(-534.808 -262.458)" fill="#d14e44"/><g transform="translate(39.241 7.127)"><path d="M568.22,289.952V394.624l-4.63,16.729-3.976-16.729V289.952a2.175,2.175,0,0,1,1.783-1.875h5.3A2.034,2.034,0,0,1,568.22,289.952Z" transform="translate(-559.61 -288.077)" fill="#ed7862"/><rect width="8.609" height="11.364" transform="translate(0 6.817)" fill="#ed7862"/><rect width="8.609" height="6.5" transform="translate(0 9.272)" fill="#ed7862"/><path d="M568.22,289.952v4.939h-8.606v-4.939a2.175,2.175,0,0,1,1.783-1.875h5.3A2.034,2.034,0,0,1,568.22,289.952Z" transform="translate(-559.61 -288.077)" fill="#ed7862"/><path d="M568.22,325.355h-8.606l3.977,16.728Z" transform="translate(-559.611 -218.807)" fill="#ed7862"/><path d="M560.6,329.485h2.533l-1.363,4.924Z" transform="translate(-557.786 -211.134)" fill="#fff"/></g><path d="M547.633,308.6v59.442s4.824.986,7.114-1.032l8.343-58.41Z" transform="translate(-542.631 -242.821)" fill="#2a2524"/><path d="M577.977,317.835a9.165,9.165,0,0,1-.2,2.361,9.761,9.761,0,0,1-1.3,2.838c-3.284,5.339-7.937,10.367-14.062,11.667-3.318.717-6.774.24-10.127-.377a6.76,6.76,0,0,1-3.384-1.4,6.056,6.056,0,0,1-1.541-3.384c-1.026-5.442-.034-11.053-.82-16.492-.206-1.572-.583-3.147-.652-4.719-.171-4.687,3.661-8.143,7.7-9.718a5.017,5.017,0,0,1,.686-.237v-.034c.477-.137.958-.309,1.4-.411a62.24,62.24,0,0,1,10.024-1.746c.24-.031.446-.031.686-.066,5.439-.514,7.7,4.89,9.3,9.235A38.681,38.681,0,0,1,577.977,317.835Z" transform="translate(-545.883 -266.081)" fill="#ed7862"/><path d="M558.36,310.007a3.929,3.929,0,0,1,2.63.6c.917.8,4.5,1.118,5.536,1.02s3.227-4.179,2.7-6.228c0,0-2.578,1.495-2.527-.169,0,0-3.255-.895-8.583,1.06S558.36,310.007,558.36,310.007Z" transform="translate(-527.432 -249.455)" fill="#814c28"/><path d="M556.481,302.956c-6.774,2.738-7.663-4.65-7.663-4.65v-.034c.477-.137.958-.309,1.4-.411a62.225,62.225,0,0,1,10.024-1.746C560.859,297.346,561.954,300.767,556.481,302.956Z" transform="translate(-540.43 -266.016)" fill="#da5b4b"/><g transform="translate(1.869 5.205)"><path d="M559.887,290.719s5.416,9.123,2,14.4-3.742,8.123-8.143,6.985-4.973-6.308-5.256-10.567S557.077,286.929,559.887,290.719Z" transform="translate(-542.929 -282.77)" fill="#814c28"/><path d="M563.495,288.226s-15.225-4.7-16.806,8.412,9.681,15.963,11.1,7.125,4.279-3.564,6.843-3.564S571.62,290.649,563.495,288.226Z" transform="translate(-546.537 -287.405)" fill="#161615"/></g><path d="M576.252,321.542s-14.983-1.849-18.472-2.978c-3.49-1.163-9.066-8.552-9.615-13.991a4.406,4.406,0,0,1,.651-3.353v-.034s2.052-4,5.542,1.129,3.7,12.385,21.313,12.522C575.672,314.837,573.755,319.112,576.252,321.542Z" transform="translate(-541.729 -259.353)" fill="#da5b4b"/><path d="M562.639,304.034a18.442,18.442,0,0,1,1.092,1.663l-1.092-.389Z" transform="translate(-514.748 -251.3)" fill="#6b3e22"/><path d="M564.426,304.537s-2.692.534-2.747,1.818.769,4.6,1.372,4.81,2.1-.8,2.424-1.283S566.542,303.679,564.426,304.537Z" transform="translate(-516.535 -250.528)" fill="#814c28"/><rect width="8.647" height="27.763" transform="translate(39.245)" fill="#161615"/><rect width="0.35" height="27.763" transform="translate(48.983)" fill="#161615"/><rect width="2.915" height="1.219" transform="translate(46.067 2.844)" fill="#161615"/></g><g transform="translate(1274.592 622.983)"><path d="M687.749,286.684s10.49,11.107,7.314,16.329c0,0-1.732,2.112-3.144,2.3l.592,7.223-10.7-.214-.689-8.437Z" transform="translate(-666.051 -279.935)" fill="#c18b52"/><path d="M697.209,288.817s-1.329-5.133-8.346-4.427-13.562,4.462-9.2,14.837,5.733,10.767,9.135,9.12,4.619-9.758,7.646-10.855S698.206,290.68,697.209,288.817Z" transform="translate(-671.383 -284.323)" fill="#161615"/><path d="M680.157,298.149s-6.177,15.231-3.736,21.734,8.06,14.091,10.635,14.565S686.267,299.512,680.157,298.149Z" transform="translate(-675.85 -258.631)" fill="#e4534d"/><path d="M678.534,340a5.929,5.929,0,0,0,0,4.1c.829,2.158,3.258,3.864,11.9-2.049s-.143-6.317-3.918-5.776S678.534,340,678.534,340Z" transform="translate(-671.546 -188.117)" fill="#161615"/><path d="M685.185,340.555a5.924,5.924,0,0,0,0,4.1c.829,2.158,3.258,3.864,11.893-2.049s-.143-6.317-3.916-5.776S685.185,340.555,685.185,340.555Z" transform="translate(-659.187 -187.088)" fill="#161615"/><g transform="translate(6.196 86.449)"><path d="M682.851,315.8l-4.833,63.229a11.027,11.027,0,0,0,8.234-.675s11.2-59.11,11.2-61.942S682.851,315.8,682.851,315.8Z" transform="translate(-678.018 -313.818)" fill="#b00011"/><path d="M683.779,317.839l4.587,26.99-2.3,37.516s6.614,1.755,9.718-2.7l4.724-38.462-2.429-25.461S687.017,312.037,683.779,317.839Z" transform="translate(-667.313 -314.569)" fill="#c3191c"/></g><path d="M681,297.749a33.676,33.676,0,0,1,27.367,0s3.4-1.583,2.455,18.793a335.173,335.173,0,0,0,.166,35.761,9.662,9.662,0,0,0-4.484,1.486c-1.889,1.349-13.5,4.859-23.752-1.349,0,0-1.889-38.191-5.4-48.177C677.357,304.263,678.063,298.929,681,297.749Z" transform="translate(-673.051 -264.745)" fill="#ee8072"/><path d="M693.691,315.018s6.217,2.441,6.217,5.139,1.349,7.108,4.184,2.475.4-7.2-2.43-8.952a30.192,30.192,0,0,0-7.154-2.83Z" transform="translate(-642.699 -235.028)" fill="#c18b52"/><path d="M690.412,295.891s5.419-1.489,8.534,15.786,11.87,27.033,11.87,27.033-4.453,4.316-5.805,4.853-11.793-16.123-14.6-23.851S684.447,296.4,690.412,295.891Z" transform="translate(-655.092 -262.887)" fill="#e4534d"/></g><path d="M656.346,366.738s-5.756-1-3.887-6.285c1.818-5.139,4.616-12.267,11.081-9.769,5.922,2.286,6.8,11.91,10.286,13.536,3.307,1.546,7.146,2.864,5.488,5.816-1.709,3.047-6.579,4.219-10.129,3.884C665.435,373.569,656.346,366.738,656.346,366.738Z" transform="translate(554.582 461.014)" fill="#938f8e" opacity="0.75"/><g transform="translate(1206.448 688.814)"><g transform="translate(7.006 79.322)"><path d="M654.46,340.375a25.143,25.143,0,0,1,2.078,14.314c-1.263,7.946-.895,23.114-.895,23.114s3.061,2.71,3.6,1.443,7.042-23.834,7.042-24.557-1.806-9.358-1.806-10.832-2.71-7.043-2.71-7.043Z" transform="translate(-654.46 -331.938)" fill="#c38860"/><path d="M658.11,345.42a33.32,33.32,0,0,1,.9,14.065c-1.263,7.223-2.484,26.364-2.484,26.364s3.207,3.25,3.93,3.25,7.583-26.724,7.583-37.379-2.166-16.612-2.166-16.612Z" transform="translate(-650.615 -335.108)" fill="#d8a785"/></g><path d="M654.7,317.792s-4.444,14.86-1.915,27.03,5.416,14.337,5.416,14.337,5.779-8.126,5.779-9.029,2.224-14.831.946-16.432S654.7,317.792,654.7,317.792Z" transform="translate(-652.009 -287.962)" fill="#edb6b4"/><path d="M669.01,310.5s4.244,9.595,0,14.142-4.785,1.118-5.508,4.367-8.126-3.25-8.126-5.959,4.156-7.223,5.779-8.849S669.01,310.5,669.01,310.5Z" transform="translate(-645.752 -301.512)" fill="#d8a785"/><path d="M663.062,337.558s.174,2.815,1.8,3.764,3.75,3.261,3.75,4.836,4.564.978-.706-9.4S663.062,337.558,663.062,337.558Z" transform="translate(-631.484 -260.928)" fill="#d8a785"/><path d="M688.883,367.877s-2.861,2.512-7.543,0c0,0-1.992-3.3-3.9-7.108-.955-2.167-1.735-4.073-2.167-5.113-.088-.26-.174-.434-.26-.695v.089c1.126,5.2,3.813,17.595,5.2,22.014,0,0-9.535,10.141-27.475,0,0,0-.866-12.133,1.475-31.2,2.427-19.155-2.775-22.1.606-28.776,0,0,.606-2.427,6.674-.78,5.979,1.646,14.213,3.121,16.554,5.633l.086.089C680.563,325.059,688.883,367.877,688.883,367.877Z" transform="translate(-650.943 -291.791)" fill="#fad9d7"/><path d="M655.341,337.057s2.244-4.462,1.429-12.587-1.895-16.252,9.752-17.063,8.666,8.4,7.583,9.752-1.9,5.145-1.9,7.042-2.438,5.957-4.6,7.04-4.333,8.126-4.876,11.107,1.355,8.666-1.623,11.647.268,0-3.793-2.438-1.9,2.166-4.064-2.438S655.341,337.057,655.341,337.057Z" transform="translate(-650.847 -307.355)" fill="#161615"/><path d="M657.866,349.406s-.689-.952-1.572,1.7-3.058,8.226-3.058,8.226l.612,1.155s2.646-7,2.887-4.825a7.892,7.892,0,0,0,5.2,7.177c4.284,1.726,5.848,0,5.848,0l-4.882-6.977S661.208,350.358,657.866,349.406Z" transform="translate(-649.728 -229.526)" fill="#f1b7b6"/><path d="M659.285,351.4s-3.061-.546-3.673,2.309.952,8.432.749,11.421h1.495s-.409-5.982,1.02-4.35,1.495,4.962,9.924,4.69,1.232-3.856-2.175-6.185S659.285,351.4,659.285,351.4Z" transform="translate(-645.579 -225.599)" fill="#fad9d7"/><path d="M675.774,363.879s-2.861,2.512-7.543,0c0,0-1.992-3.3-3.9-7.108-.955-2.167-1.735-4.073-2.167-5.113a4.446,4.446,0,0,0-.26-.606v-.174a5.147,5.147,0,0,1-.26-.955c-.089-.26-.089-.606-.174-1.04,0-.086,0-.086-.086-.171-.955-6.762-2.341-25.049-1.475-28,1.129-3.467,5.028-2.775,5.028-2.775l.086.089C667.453,321.061,675.774,363.879,675.774,363.879Z" transform="translate(-637.833 -287.792)" fill="#f1c3c3" opacity="0.41"/></g><path d="M457.971,224.882l-3.207,3.727V402.48a5.092,5.092,0,0,1-2.167,4.073L379.617,454.83l.089.089-4.076,6.674-4.247-4.767-.171-.174a4.561,4.561,0,0,1-2.081-3.9V273.508a4.809,4.809,0,0,1,2.166-3.987l75.927-50.272a4.8,4.8,0,0,1,5.894.434l.866.866Z" transform="translate(28.802 216.231)" fill="#dd3922"/><path d="M373.068,271.379,449,221.123a4.83,4.83,0,0,1,7.5,4.027V404.389a4.827,4.827,0,0,1-2.164,4.027L378.4,458.672a4.83,4.83,0,0,1-7.5-4.027V275.406A4.827,4.827,0,0,1,373.068,271.379Z" transform="translate(32.098 219.718)" fill="#ea6a59"/><path d="M374.616,270.262l66.747-44.176a4.246,4.246,0,0,1,6.591,3.541v157.56a4.251,4.251,0,0,1-1.9,3.541L379.306,434.9a4.246,4.246,0,0,1-6.591-3.541V273.8A4.251,4.251,0,0,1,374.616,270.262Z" transform="translate(35.463 229.12)" fill="#f7bcb8"/><path d="M609.265,134.352c.086.089,2.6,1.386,3.9,2.081a8.676,8.676,0,0,1,.174,1.561V314.9a5.894,5.894,0,0,1-2.6,4.853l-158.183,104.7-.866,4.333-5.808-2.947-.26-.086a5.848,5.848,0,0,1-3.467-5.288l.089-176.9a5.671,5.671,0,0,1,2.6-4.853L604.323,133.14a5.442,5.442,0,0,1,5.808-.346S609.265,134.267,609.265,134.352Z" transform="translate(164.491 55.835)" fill="#8c8b8b"/><path d="M504.23,136.146s-.346-.174-.78-.434a5.888,5.888,0,0,0-2.252-3.207l5.2,2.6Z" transform="translate(274.205 56.557)" fill="#8c8b8b"/><path d="M504.52,135.992c-1.3-.695-3.813-1.992-3.9-2.081,0-.086.866-1.558.866-1.558l.78.432A5.887,5.887,0,0,1,504.52,135.992Z" transform="translate(273.135 56.276)" fill="#8c8b8b"/><path d="M444.253,244.585V421.471a5.811,5.811,0,0,0,9.02,4.845l159.5-105.57a5.807,5.807,0,0,0,2.6-4.845V139.015a5.81,5.81,0,0,0-9.017-4.845l-159.5,105.57A5.807,5.807,0,0,0,444.253,244.585Z" transform="translate(168.393 57.838)" fill="#dddcdc"/><g transform="translate(645.207 255.75)"><path d="M565.985,157.822V174.74a1.978,1.978,0,0,1-.889,1.649L458.72,246.834a1.982,1.982,0,0,1-3.076-1.652V228.265a1.986,1.986,0,0,1,.889-1.652L562.909,156.17A1.981,1.981,0,0,1,565.985,157.822Z" transform="translate(-455.645 -155.838)" fill="#938f8e"/><path d="M566.456,158.106v16.918a1.984,1.984,0,0,1-.886,1.652L459.194,247.118a1.981,1.981,0,0,1-3.075-1.652V228.549a1.978,1.978,0,0,1,.889-1.649l106.376-70.445A1.98,1.98,0,0,1,566.456,158.106Z" transform="translate(-454.764 -155.31)" fill="#bababa"/></g><g transform="translate(420.766 469.505)"><path d="M459.88,232.112V244.8a1.487,1.487,0,0,1-.666,1.238l-79.789,52.839a1.486,1.486,0,0,1-2.307-1.238v-12.69a1.48,1.48,0,0,1,.666-1.238l79.789-52.839A1.486,1.486,0,0,1,459.88,232.112Z" transform="translate(-377.119 -230.625)" fill="#df4c42"/><path d="M460.235,232.328v12.687a1.485,1.485,0,0,1-.666,1.24l-79.789,52.836a1.486,1.486,0,0,1-2.307-1.238v-12.69a1.487,1.487,0,0,1,.666-1.238l79.789-52.839A1.486,1.486,0,0,1,460.235,232.328Z" transform="translate(-376.459 -230.229)" fill="#ea6a59"/></g><g transform="translate(365.689 536.403)"><path d="M440.61,255.521v12.687a1.492,1.492,0,0,1-.666,1.24l-79.789,52.836a1.486,1.486,0,0,1-2.306-1.238v-12.69a1.485,1.485,0,0,1,.663-1.238L438.3,254.28A1.486,1.486,0,0,1,440.61,255.521Z" transform="translate(-357.849 -254.031)" fill="#64605f"/><path d="M440.965,255.733V268.42a1.482,1.482,0,0,1-.666,1.24L360.511,322.5a1.486,1.486,0,0,1-2.307-1.238v-12.69a1.487,1.487,0,0,1,.666-1.238l79.789-52.839A1.487,1.487,0,0,1,440.965,255.733Z" transform="translate(-357.189 -253.634)" fill="#8c8b8b"/></g><g transform="translate(390.143 595.466)"><path d="M426.907,275.783v9.278a1.093,1.093,0,0,1-.486.906L368.091,324.6a1.087,1.087,0,0,1-1.686-.906v-9.278a1.092,1.092,0,0,1,.486-.906l58.33-38.628A1.087,1.087,0,0,1,426.907,275.783Z" transform="translate(-366.405 -274.695)" fill="#64605f"/><path d="M427.169,275.939v9.278a1.093,1.093,0,0,1-.486.906L368.35,324.751a1.087,1.087,0,0,1-1.686-.906v-9.278a1.088,1.088,0,0,1,.489-.906l58.33-38.628A1.087,1.087,0,0,1,427.169,275.939Z" transform="translate(-365.924 -274.406)" fill="#8c8b8b"/></g><g transform="translate(441.07 532.314)"><path d="M449.71,253.778v10.041a1.178,1.178,0,0,1-.529.98l-63.134,41.809a1.175,1.175,0,0,1-1.823-.98V295.587a1.175,1.175,0,0,1,.526-.98L447.883,252.8A1.177,1.177,0,0,1,449.71,253.778Z" transform="translate(-384.223 -252.6)" fill="#df4c42"/><path d="M449.99,253.947v10.041a1.179,1.179,0,0,1-.526.98l-63.137,41.806a1.175,1.175,0,0,1-1.824-.98V295.756a1.175,1.175,0,0,1,.526-.98l63.134-41.809A1.177,1.177,0,0,1,449.99,253.947Z" transform="translate(-383.701 -252.286)" fill="#ea6a59"/></g><line y1="70.444" x2="106.376" transform="translate(646.095 302.807)" fill="none" stroke="#161615" stroke-miterlimit="10" stroke-width="0.1"/><line y1="90.453" x2="136.592" transform="translate(630.987 302.913)" fill="none" stroke="#161615" stroke-miterlimit="10" stroke-width="0.1"/><line y1="90.453" x2="136.592" transform="translate(630.987 316.594)" fill="none" stroke="#161615" stroke-miterlimit="10" stroke-width="0.1"/><path d="M483.817,211.692v5.162a.608.608,0,0,1-.271.5L451.1,238.845a.6.6,0,0,1-.937-.5V233.18a.6.6,0,0,1,.271-.5l32.449-21.488A.6.6,0,0,1,483.817,211.692Z" transform="translate(179.368 202.576)" fill="#938f8e"/><path d="M483.959,211.78v5.159a.61.61,0,0,1-.269.506l-32.449,21.488a.6.6,0,0,1-.938-.506v-5.159a.6.6,0,0,1,.269-.5l32.449-21.488A.6.6,0,0,1,483.959,211.78Z" transform="translate(179.637 202.737)" fill="#bababa"/><path d="M504.069,199.564v5.159a.6.6,0,0,1-.272.5l-32.449,21.491a.6.6,0,0,1-.937-.506v-5.159a.6.6,0,0,1,.271-.5l32.449-21.491A.6.6,0,0,1,504.069,199.564Z" transform="translate(217 180.035)" fill="#938f8e"/><path d="M504.214,199.648v5.162a.6.6,0,0,1-.272.5L471.493,226.8a.6.6,0,0,1-.937-.5v-5.159a.606.606,0,0,1,.269-.506l32.449-21.488A.606.606,0,0,1,504.214,199.648Z" transform="translate(217.269 180.197)" fill="#bababa"/><path d="M522.421,188.68v5.162a.6.6,0,0,1-.272.5L489.7,215.833a.6.6,0,0,1-.937-.5v-5.162a.6.6,0,0,1,.272-.5l32.449-21.488A.6.6,0,0,1,522.421,188.68Z" transform="translate(251.101 159.816)" fill="#938f8e"/><path d="M522.566,188.767v5.159a.609.609,0,0,1-.272.506L489.845,215.92a.6.6,0,0,1-.937-.5v-5.162a.6.6,0,0,1,.269-.5l32.449-21.488A.605.605,0,0,1,522.566,188.767Z" transform="translate(251.37 159.978)" fill="#bababa"/><path d="M504.52,135.992c-1.3-.695-3.813-1.992-3.9-2.081,0-.086.866-1.558.866-1.558l.78.432A5.887,5.887,0,0,1,504.52,135.992Z" transform="translate(273.135 56.276)" fill="#8c8b8b"/><path d="M580.931,236.116c-3.347,1.581-10.924,4.184-18.406,2.975-8.134-1.3-13.482-3.487-13.619-6.694s4.367-4.09,4.367-4.09,5.533-.28,13.248-.837Z" transform="translate(362.849 233.018)" fill="#d83130" opacity="0.78"/><g transform="translate(909.987 383.352)"><path d="M549.941,218.766s2.086-1.789,3.13-7.754,9.246-14.617,18.047-8.352,5.368,14.165,2.086,17.9,4.476,9.992,0,11.333-16.254,1.641-24.755-8.649A4.093,4.093,0,0,1,549.941,218.766Z" transform="translate(-548.284 -200.482)" fill="#5d350f"/><path d="M559.934,221.545s1.923-3.693,7.889-2.65,1.789,2.761,0,2.65-7.889,2.955-7.889,2.955S557.393,223.7,559.934,221.545Z" transform="translate(-528.736 -166.611)" fill="#c18b52"/><path d="M558.351,219.98s7.363-1.541,8.406.995-6.125,3.49-6.717,6.294S551.737,224.5,558.351,219.98Z" transform="translate(-534.53 -165.112)" fill="#b8b5b5"/><path d="M590.106,250.772a1.625,1.625,0,0,1-1.04.952,14.979,14.979,0,0,1-3.032.869c-.174,0-.346.086-.606.086a.665.665,0,0,0-.349.086h-.171c-1.3.26-2.775.434-4.333.609-4.507.432-9.449.52-11.355-.174,0,0-3.556,3.293-7.108,3.293h-.692c-3.816-.26-10.661-2.512-12.482-4.679-.434-.52-.52-1.646-.349-3.121v-.086c.609-4.507,3.207-12.567,1.995-19.416-1.561-9.189.695-15.343,3.467-18.375,2.687-2.861,11.527,3.207,12.653,3.987h.089a78,78,0,0,1,3.727,7.366c1.212,2.95,2.078,6.068,1.561,7.889a19.379,19.379,0,0,0-.349,7.54c.349,3.3,1.04,6.328,1.646,7.283.78.952,4.507,1.04,7.889,1.386a11.951,11.951,0,0,1,2.6.26,8.362,8.362,0,0,1,2.687.78,23.3,23.3,0,0,1,2.166,1.472,3.085,3.085,0,0,1,.78.609C590.02,249.906,590.28,250.338,590.106,250.772Z" transform="translate(-547.875 -182.696)" fill="#d2d1d1"/><path d="M565.075,229.435s8.389.572,9.878-6.883c0,0,.3-2.238-3.13,0s-7.457,4.77-9.395,5.368S565.075,229.435,565.075,229.435Z" transform="translate(-522.893 -161.319)" fill="#c18b52"/><path d="M567.957,245.074l-3.207-1.821-4.593-2.772.26-2.341v-.174l-.692-12.219v-.695a13.926,13.926,0,0,1,4.333.086h.52l.172.089c2.081.52,4.247,1.732,4.507,4.767C569.606,234.067,568.651,240.827,567.957,245.074Z" transform="translate(-527.026 -155.07)" fill="#b27b45"/><path d="M569.049,247.685l-4.247-2.6-3.207-1.821.435-5.288-.606-12.827v-.086c.26,0,.432-.086.606-.086,1.992-.174,8.32-.349,8.84,5.028C571.389,235.118,569.743,244.218,569.049,247.685Z" transform="translate(-523.871 -155.081)" fill="#c18b52"/><path d="M586.045,239.123a13.175,13.175,0,0,0-4.767.174c-.955.174-1.992.346-3.121.52h-.086c-7.02,1.215-16.9,2.947-22.883.78-9.186-3.467-6.239-15.254-6.239-15.254s2.947.606,6.585.952c.089,0,.089,0,.174.089,3.987.26,8.669.346,11.007-1.04a9.065,9.065,0,0,1,.955-.52c5.2-1.735,17.769,1.386,17.769,1.386v.086l.171.089C591.072,231.151,586.045,239.123,586.045,239.123Z" transform="translate(-547.887 -156.227)" fill="#e56c5c"/><path d="M558.228,228.484l17.143-11.065,12.315,8.8-18.821,10.921Z" transform="translate(-529.808 -169.011)" fill="#e8e8e8"/><path d="M558.929,227.447l14.81-9.559,10.639,7.6-16.259,9.435Z" transform="translate(-528.505 -168.138)" fill="#d2d1d1"/><path d="M581.014,245.783c-2.672,1.338-16.223,2.77-19.85,1.432-4.487-3.436-8.78-23.288-8.306-29.776.477-6.585,6.108-3.435,6.108-3.435a24.126,24.126,0,0,1,3.533,2.2c1.241,2.958,2.1,6.108,1.526,7.92-1.335,4.3.192,13.076,1.338,14.794,1.24,1.623,10.6.86,13.17,2.481C581.014,243.017,583.687,244.449,581.014,245.783Z" transform="translate(-539.852 -176.756)" fill="#c5c2c2"/></g></g></svg>